<?xml version="1.0" encoding="utf-8"?>
<!-- Generator: Adobe Illustrator 27.5.0, SVG Export Plug-In . SVG Version: 6.00 Build 0)  -->
<svg version="1.1" id="Ebene_1" xmlns="http://www.w3.org/2000/svg" xmlns:xlink="http://www.w3.org/1999/xlink" x="0px" y="0px"
	 viewBox="0 0 16 16" style="enable-background:new 0 0 16 16;" xml:space="preserve">
<style type="text/css">
	.st0{fill:#FFFFFF;}
</style>
<path class="st0" d="M8,15c-3.9,0-7-3.1-7-7s3.1-7,7-7s7,3.1,7,7S11.9,15,8,15z M8,16c4.4,0,8-3.6,8-8s-3.6-8-8-8S0,3.6,0,8
	S3.6,16,8,16z"/>
<path class="st0" d="M11,5C11,5,11,5,11,5L7.5,9.4L5.4,7.3C5.1,7,4.6,7.1,4.3,7.4c-0.3,0.3-0.3,0.7,0,1L7,11c0.3,0.3,0.8,0.3,1.1,0
	c0,0,0,0,0,0l4-5c0.3-0.3,0.3-0.8,0-1.1C11.7,4.7,11.3,4.7,11,5z"/>
</svg>
